<?xml version="1.0" encoding="UTF-8"?>
<svg width="25px" height="18px" viewBox="0 0 25 18" version="1.1" xmlns="http://www.w3.org/2000/svg" xmlns:xlink="http://www.w3.org/1999/xlink">
    <!-- Generator: Sketch 44.1 (41455) - http://www.bohemiancoding.com/sketch -->
    <title>Page 1</title>
    <desc>Created with Sketch.</desc>
    <defs></defs>
    <g id="Home---Sign-Up" stroke="none" stroke-width="1" fill="none" fill-rule="evenodd">
        <g id="Desktop-HD---SignUp" transform="translate(-477.000000, -399.000000)" fill="#FFFFFF">
            <g id="SignUpModal">
                <path d="M499.740964,399.5 L479.259036,399.5 C478.013253,399.5 477,400.513253 477,401.759036 L477,414.710843 C477,415.956627 478.013253,416.96988 479.259036,416.96988 L499.740964,416.96988 C500.986747,416.96988 502,415.956627 502,414.710843 L502,401.759036 C502,400.513253 500.986747,399.5 499.740964,399.5 L499.740964,399.5 Z M501.096386,401.759036 L501.096386,414.710843 C501.096386,414.935341 501.036948,415.143775 500.939357,415.328916 L493.338956,408.23494 L500.939357,401.140964 C501.036948,401.326104 501.096386,401.534538 501.096386,401.759036 L501.096386,401.759036 Z M499.740964,400.403614 C499.933735,400.403614 500.116064,400.445783 500.282329,400.518072 L490.513253,409.635743 C489.964257,410.148996 489.037349,410.148996 488.486747,409.635743 L478.716064,400.518072 C478.882329,400.445783 479.066265,400.403614 479.259036,400.403614 L499.740964,400.403614 Z M478.059036,415.328916 C477.963052,415.142169 477.903614,414.935341 477.903614,414.710843 L477.903614,401.759036 C477.903614,401.534538 477.963052,401.327711 478.059036,401.140964 L485.661044,408.23494 L478.059036,415.328916 Z M479.259036,416.066265 C479.066265,416.066265 478.882329,416.024096 478.716064,415.951807 L486.321687,408.853012 L487.868675,410.297992 C488.317269,410.716867 488.906827,410.926908 489.498394,410.926908 C490.088353,410.926908 490.678313,410.716867 491.128514,410.297992 L492.6751,408.853012 L500.280723,415.951807 C500.116064,416.024096 499.933735,416.066265 499.740964,416.066265 L479.259036,416.066265 Z" id="Page-1"></path>
            </g>
        </g>
    </g>
</svg>