<?xml version="1.0" encoding="UTF-8"?>
<svg width="25px" height="31px" viewBox="0 0 25 31" version="1.1" xmlns="http://www.w3.org/2000/svg" xmlns:xlink="http://www.w3.org/1999/xlink">
    <!-- Generator: Sketch 44.1 (41455) - http://www.bohemiancoding.com/sketch -->
    <title>Page 1</title>
    <desc>Created with Sketch.</desc>
    <defs></defs>
    <g id="Home---Sign-Up" stroke="none" stroke-width="1" fill="none" fill-rule="evenodd">
        <g id="Desktop-HD---SignUp" transform="translate(-477.000000, -393.000000)" fill="#FFFFFF">
            <g id="SignUpModal">
                <path d="M492.420281,393.001258 C492.191558,393.01135 491.976311,393.112255 491.823255,393.282115 C491.668529,393.450291 491.589487,393.673972 491.599579,393.90269 C491.60967,394.131409 491.710575,394.34666 491.880435,394.499716 C492.048611,394.654442 492.272292,394.733484 492.501011,394.723392 L499.389598,394.723392 C499.882348,394.723392 500.250672,395.091704 500.250672,395.584466 L500.250672,421.416671 C500.250672,421.90942 499.882361,422.277744 499.389598,422.277744 L492.501011,422.277744 C492.270604,422.274382 492.048603,422.363516 491.883793,422.524967 C491.720658,422.688101 491.628162,422.908411 491.628162,423.138826 C491.628162,423.369241 491.720658,423.589555 491.883793,423.752685 C492.048607,423.914137 492.270604,424.003271 492.501011,423.999908 L499.389598,423.999908 C500.805677,423.999908 501.972819,422.832766 501.972819,421.416688 L501.972819,395.584483 C501.972819,394.168405 500.805677,393.001263 499.389598,393.001263 L492.501011,393.001263 C492.474102,392.999579 492.447193,392.999579 492.420285,393.001263 L492.420281,393.001258 Z M483.809546,400.737573 C483.590915,400.759436 483.387417,400.865391 483.244466,401.033567 L477.216952,407.922155 C476.927683,408.24842 476.927683,408.739486 477.216952,409.065747 L483.244466,415.954335 C483.560644,416.309192 484.103861,416.341146 484.460388,416.024968 C484.815245,415.710474 484.848879,415.167253 484.536068,414.810726 L479.759693,409.361853 L495.084218,409.361853 C495.314624,409.365215 495.536626,409.276081 495.701436,409.11463 C495.86457,408.951495 495.957067,408.731185 495.957067,408.500771 C495.957067,408.270356 495.86457,408.050042 495.701436,407.886911 C495.536622,407.72546 495.314624,407.636326 495.084218,407.639688 L479.759693,407.639688 L484.536068,402.177038 C484.779928,401.912999 484.833745,401.526196 484.672294,401.204972 C484.509159,400.885432 484.166069,400.698747 483.809541,400.737452 L483.809546,400.737573 Z" id="Page-1"></path>
            </g>
        </g>
    </g>
</svg>