<?xml version="1.0" encoding="UTF-8"?>
<svg width="247px" height="167px" viewBox="0 0 247 167" version="1.1" xmlns="http://www.w3.org/2000/svg" xmlns:xlink="http://www.w3.org/1999/xlink">
    <!-- Generator: Sketch 44.1 (41455) - http://www.bohemiancoding.com/sketch -->
    <title>Pitch</title>
    <desc>Created with Sketch.</desc>
    <defs>
        <rect id="path-1" x="48.1108148" y="-45.8891852" width="152.369995" height="246.149994"></rect>
        <polygon id="path-2" points="0.759555294 2.859875 3.30340735 2.859875 3.30340735 0.294810667 2.03148132 0.294810667 0.759555294 0.294810667 0.759555294 2.859875"></polygon>
        <polygon id="path-4" points="0.759555294 2.78183033 3.30340735 2.78183033 3.30340735 0.216766 2.03148132 0.216766 0.759555294 0.216766 0.759555294 2.78183033"></polygon>
    </defs>
    <g id="Page-1" stroke="none" stroke-width="1" fill="none" fill-rule="evenodd">
        <g id="Messi---during-rating" transform="translate(-1073.000000, -187.000000)">
            <g id="Group-4" transform="translate(120.000000, 148.000000)">
                <g id="Pitch" transform="translate(952.000000, 39.000000)">
                    <g id="Rectangle-6" transform="translate(124.295812, 77.185812) rotate(90.000000) translate(-124.295812, -77.185812) ">
                        <use fill="#27AE60" fill-rule="evenodd" xlink:href="#path-1"></use>
                        <rect stroke="#979797" stroke-width="1" x="48.6108148" y="-45.3891852" width="151.369995" height="245.149994"></rect>
                    </g>
                    <g id="Page-1" transform="translate(124.454301, 83.500000) rotate(90.000000) translate(-124.454301, -83.500000) translate(40.954301, -40.000000)">
                        <g id="Group-3" transform="translate(81.486176, 20.541000)">
                            <mask id="mask-3" fill="white">
                                <use xlink:href="#path-2"></use>
                            </mask>
                            <g id="Clip-2"></g>
                            <path d="M2.01996324,0.294810667 C1.31242353,0.294810667 0.759555294,0.872853333 0.759555294,1.57570067 C0.759555294,2.28183233 1.31242353,2.859875 2.01996324,2.859875 C2.72750294,2.859875 3.30669824,2.28183233 3.30669824,1.57570067 C3.30669824,0.859716 2.72750294,0.294810667 2.01996324,0.294810667" id="Fill-1" fill="#000000" mask="url(#mask-3)"></path>
                        </g>
                        <g id="Group-6" transform="translate(81.486176, 223.334667)">
                            <mask id="mask-5" fill="white">
                                <use xlink:href="#path-4"></use>
                            </mask>
                            <g id="Clip-5"></g>
                            <path d="M2.01996324,0.216766 C1.31242353,0.216766 0.759555294,0.794808667 0.759555294,1.50094033 C0.759555294,2.207072 1.31242353,2.78511467 2.01996324,2.78511467 C2.72750294,2.78511467 3.30669824,2.207072 3.30669824,1.50094033 C3.30669824,0.794808667 2.72750294,0.216766 2.01996324,0.216766" id="Fill-4" fill="#000000" mask="url(#mask-5)"></path>
                        </g>
                        <path d="M1.88896647,245.040826 L1.88896647,241.628403 C3.60022529,242.002817 4.93632353,243.336257 5.30819324,245.040826 L1.88896647,245.040826 M161.71725,245.040826 C162.075956,243.336257 163.425218,242.002817 165.136476,241.628403 L165.136476,245.040826 L161.71725,245.040826 M72.0407056,245.040826 L72.0407056,236.061458 L94.9847374,236.061458 L94.9847374,245.040826 L72.0407056,245.040826 M48.5010241,245.040826 L48.5010241,214.778978 L118.537582,214.778978 L118.537582,245.040826 L96.2846359,245.040826 L96.2846359,234.777284 L70.7539706,234.777284 L70.7539706,245.040826 L48.5010241,245.040826 M63.4251756,213.494804 C68.7629868,208.70953 75.7923115,205.783189 83.5061397,205.783189 C91.2331315,205.783189 98.2756197,208.70953 103.61014,213.494804 L63.4251756,213.494804 M83.5061397,125.073982 C84.3551874,125.073982 85.0627271,124.548489 85.3325794,123.816082 L113.522278,123.816082 C113.341279,131.823287 110.040524,139.071811 104.742204,144.343166 C99.3056659,149.772169 91.8090359,153.118904 83.5061397,153.118904 C75.2131162,153.118904 67.7329406,149.772169 62.2964029,144.343166 C57.0112459,139.071811 53.6940365,131.823287 53.5163288,123.816082 L81.7060271,123.816082 C81.9758794,124.548489 82.6834191,125.073982 83.5061397,125.073982 M83.5061397,154.416216 C100.58911,154.416216 114.447016,140.763242 114.809013,123.816082 L165.14964,123.816082 L165.14964,240.935409 C163.066511,241.309823 161.42107,242.95199 161.022874,245.040826 L119.821026,245.040826 L119.821026,213.494804 L105.47607,213.494804 C99.8322071,207.950849 92.1052153,204.515437 83.58183,204.515437 L83.5061397,204.515437 C74.9564274,204.515437 67.2063994,207.927859 61.5625362,213.494804 L47.21758,213.494804 L47.21758,245.040826 L6.00256941,245.040826 C5.63069971,242.965127 3.98525853,241.32296 1.88896647,240.935409 L1.88896647,123.816082 L52.2295938,123.816082 C52.5652638,140.750105 66.4462056,154.416216 83.5061397,154.416216 M53.5163288,122.535192 C53.6940365,114.501713 56.9980824,107.253189 62.2964029,101.981834 C67.7329406,96.5659687 75.2262797,93.2060957 83.5061397,93.2060957 C91.8090359,93.2060957 99.3056659,96.579106 104.742204,101.981834 C110.027361,107.253189 113.341279,114.501713 113.522278,122.535192 L85.3325794,122.535192 C85.0627271,121.776511 84.3551874,121.251018 83.5061397,121.251018 C82.6834191,121.251018 81.9758794,121.776511 81.7060271,122.535192 L53.5163288,122.535192 M83.5061397,40.554948 C75.7923115,40.554948 68.7629868,37.628607 63.4251756,32.8433333 L103.61014,32.8433333 C98.2756197,37.6154697 91.2331315,40.554948 83.5061397,40.554948 M1.88896647,4.69659667 L1.88896647,1.28417433 L5.30819324,1.28417433 C4.93632353,2.98874333 3.60022529,4.34845733 1.88896647,4.69659667 M72.0407056,10.2635417 L72.0407056,1.28417433 L94.9847374,1.28417433 L94.9847374,10.2635417 L72.0407056,10.2635417 M70.7539706,11.547716 L96.2714724,11.547716 L96.2714724,1.28417433 L118.524419,1.28417433 L118.524419,31.559159 L48.4746971,31.559159 L48.4746971,1.28417433 L70.7539706,1.28417433 L70.7539706,11.547716 M83.5061397,41.835838 C92.0558521,41.835838 99.80588,38.397141 105.47607,32.830196 L119.821026,32.830196 L119.821026,1.28417433 L161.00971,1.28417433 C161.407907,3.359873 163.053348,5.00203967 165.136476,5.40272833 L165.136476,122.522055 L114.809013,122.522055 C114.447016,105.561758 100.58911,91.908784 83.5061397,91.908784 C66.4462056,91.908784 52.5652638,105.561758 52.2295938,122.522055 L1.88896647,122.522055 L1.88896647,5.41258133 C3.972095,5.015177 5.61753618,3.37301033 6.00256941,1.29731167 L47.2044165,1.29731167 L47.2044165,32.8433333 L61.5493726,32.8433333 C67.2063994,38.397141 74.9564274,41.835838 83.5061397,41.835838 M165.136476,4.69659667 C163.425218,4.33532 162.075956,2.98874333 161.71725,1.28417433 L165.136476,1.28417433 L165.136476,4.69659667 M166.433084,0 L0.605522353,0 L0.605522353,246.325 L166.419921,246.325 L166.419921,0" id="Fill-7" fill="#FFFFFF"></path>
                    </g>
                    <polygon id="Page-1" fill="#FFFFFF" points="184.562604 6 189.169519 12.0368386 186.060032 6.16430526 193.66053 17.6491158 203.86826 9.81765614 200.767263 13.2922667 206.759098 9.47461053 200.506582 14.9043263 205.062551 12.2109088 203.37407 14.2857404 209.25 11.3851368 195.748523 20.8282316 201.115404 28.9810842 199.669347 27.991007 202.989418 33.0407404 198.553175 27.8284 200.863214 31.5152912 197.679004 28.4851965 200.529933 33.6164456 192.937502 22.7238982 181.161018 30.8351439 184.058225 27.6908421 179 30.9213298 181.610204 28.1502175 179.255586 28.8116842 190.902579 19.7999439 184.103228 9.89577544 187.661902 13.2489614 185.615516 9.01523509 187.177902 10.4995018"></polygon>
                    <polygon id="Page-1-Copy" fill="#FFFFFF" points="202.401481 60 208.531344 68.0324877 204.393926 60.2186211 214.506986 75.5000632 228.089172 65.0796912 223.963053 69.7029333 231.93566 64.6232421 223.616196 71.8479053 229.67827 68.2641018 227.431614 71.0248281 235.25 67.1653474 217.285225 79.7301263 224.426281 90.5781368 222.502189 89.2607614 226.919804 95.9798281 221.017035 89.0444 224.090723 93.9500982 219.853881 89.9183193 223.647267 96.7458491 213.54494 82.2524596 197.875404 93.0451088 201.730365 88.8613684 195 93.159786 198.473081 89.4726035 195.340077 90.3527368 210.837316 78.3619088 201.790246 65.1836351 206.52534 69.6453123 203.802463 64.012007 205.88134 65.9869404"></polygon>
                    <polygon id="Page-1-Copy-2" fill="#FFFFFF" points="182.562604 115 187.169519 121.036839 184.060032 115.164305 191.66053 126.649116 201.86826 118.817656 198.767263 122.292267 204.759098 118.474611 198.506582 123.904326 203.062551 121.210909 201.37407 123.28574 207.25 120.385137 193.748523 129.828232 199.115404 137.981084 197.669347 136.991007 200.989418 142.04074 196.553175 136.8284 198.863214 140.515291 195.679004 137.485196 198.529933 142.616446 190.937502 131.723898 179.161018 139.835144 182.058225 136.690842 177 139.92133 179.610204 137.150218 177.255586 137.811684 188.902579 128.799944 182.103228 118.895775 185.661902 122.248961 183.615516 118.015235 185.177902 119.499502"></polygon>
                </g>
            </g>
        </g>
    </g>
</svg>