<?xml version="1.0" encoding="UTF-8"?>
<svg width="852px" height="358px" viewBox="0 0 852 358" version="1.1" xmlns="http://www.w3.org/2000/svg" xmlns:xlink="http://www.w3.org/1999/xlink">
    <!-- Generator: Sketch 44.1 (41455) - http://www.bohemiancoding.com/sketch -->
    <title>Group 3</title>
    <desc>Created with Sketch.</desc>
    <defs></defs>
    <g id="Home" stroke="none" stroke-width="1" fill="none" fill-rule="evenodd">
        <g id="Desktop-HD" transform="translate(-235.000000, -354.000000)">
            <g id="Group-3" transform="translate(235.000000, 354.000000)">
                <path d="M25.3008442,345.142118 C204.832694,345.142118 236.851113,346.285633 236.851113,346.285633 L236.851113,22.6708977 L452,22.6708977 L630,22.6708977 C632.321064,22.6708977 652.986637,136.933085 690,134 C727.013363,131.066915 774.303147,11.235748 774.303147,11.235748 L847,273" id="Path-2" stroke="#979797" stroke-dasharray="20"></path>
                <path id="Path-2-decoration-1" d="M25.3008442,342.142118 L25.3008442,348.142118" stroke="#979797" stroke-dasharray="20"></path>
                <path id="Path-2-decoration-2" d="M849.890598,272.197227 L844.109402,273.802773" stroke="#979797" stroke-dasharray="20"></path>
                <g id="Page-1" transform="translate(0.000000, 317.000000)" fill="#16A085">
                    <path d="M24.7670213,25.9101064 C24.7670213,29.3776596 19.5664894,29.3776596 19.5664894,25.9101064 C19.5664894,22.4420213 24.7670213,22.4420213 24.7670213,25.9101064" id="Fill-1"></path>
                    <path d="M6.33085106,5.93829787 C6.33085106,5.93829787 5.03882979,6.2393617 4.64202128,6.44308511 C4.24095745,6.60319149 2.0962766,8.52712766 1.24042553,9.62446809 C0.932978723,10.8792553 0.365957447,13.8404255 0.240957447,15.0659574 C0.143617021,15.8494681 0.916489362,16.0382979 1.12819149,16.0553191 C1.19468085,16.0590426 2.11542553,16.0968085 2.22553191,15.2175532 C2.33776596,14.3409574 3.0606383,10.7090426 3.0606383,10.7090426 L6.04414894,8.8537234 C6.04414894,8.8537234 5.78031915,9.57659574 5.16755319,10.037766 C4.55265957,10.4989362 8.69946809,18.2223404 8.69946809,18.2223404 C8.69946809,18.2223404 12.6909574,23.262766 12.7367021,23.3292553 C12.7824468,23.3957447 16.0446809,28.6920213 16.0446809,28.6920213 C16.0446809,28.6920213 16.5930851,29.5026596 17.6675532,28.8606383 C18.4776596,28.3574468 17.8148936,27.2276596 17.8148936,27.2276596 L15.2218085,22.2388298 L12.1010638,16.9712766 C12.1010638,16.9712766 11.9265957,9.64308511 10.6526596,5.93404255 C10.6547872,5.93829787 8.98670213,7.62765957 6.33085106,5.93829787 L6.33085106,5.93829787 Z" id="Fill-2"></path>
                    <path d="M5.35425532,25.9101064 C5.35425532,25.9101064 3.78351064,24.3351064 5.12180851,23.418617 L9.28776596,20.7425532 L10.9829787,22.9324468 L5.35425532,25.9101064 Z" id="Fill-3"></path>
                    <path d="M13.181383,16.3978723 L13.237766,17.5239362 L15.0473404,20.3787234 C15.0473404,20.3808511 16.0718085,20.0196809 13.181383,16.3978723 L13.181383,16.3978723 Z" id="Fill-4"></path>
                    <path d="M11.8021277,6.57393617 C11.8021277,6.57393617 12.3648936,7.62765957 12.4648936,9.99840426 L14.043617,11.1994681 L16.9425532,11.7106383 C16.9425532,11.7106383 17.8648936,11.6521277 17.9414894,10.7111702 C18.0079787,9.89840426 17.1356383,9.77606383 16.9425532,9.71170213 C16.8776596,9.68882979 14.8728723,9.27340426 14.8728723,9.27340426 L11.8021277,6.57393617 Z" id="Fill-5"></path>
                    <path d="M8.55212766,0.143617021 C8.20744681,0.143617021 6.58882979,0.320212766 6.58882979,2.10691489 C6.58882979,3.89361702 7.35957447,5.60159574 8.55212766,5.60159574 C9.74468085,5.60159574 10.5159574,3.7356383 10.5159574,2.10691489 C10.5159574,0.477659574 9.01117021,0.143617021 8.55212766,0.143617021 L8.55212766,0.143617021 Z" id="Fill-6"></path>
                </g>
                <g id="Page-1" transform="translate(235.000000, 335.000000)" fill="#2C3E50">
                    <path d="M16.2253333,4.94133333 C16.3306667,4.99333333 16.4373333,5.03633333 16.5456667,5.073 C17.1106667,5.26033333 17.707,5.23433333 18.2356667,5.02733333 C18.793,4.81 19.2733333,4.39066667 19.56,3.81266667 C20.168,2.57933333 19.6626667,1.08733333 18.4296667,0.478 C17.198,-0.131666667 15.7043333,0.375 15.095,1.60666667 C14.784,2.23833333 14.7643333,2.93733333 14.9843333,3.55066667 C15.0703333,3.79033333 15.1926667,4.017 15.349,4.22133333 C15.5756667,4.517 15.8696667,4.767 16.2253333,4.94133333 L16.2253333,4.94133333 Z" id="Fill-1"></path>
                    <path d="M2.07566667,13.819 C1.677,13.819 1.30333333,13.716 0.978,13.5376667 C0.655,14.0143333 0.670666667,14.664 1.05733333,15.129 C1.319,15.4426667 1.69533333,15.6053333 2.07566667,15.6053333 C2.375,15.6053333 2.67566667,15.5053333 2.92333333,15.2983333 C6.28133333,12.5076667 8.974,12.0483333 10.5376667,12.039 C11.0456667,12.039 11.4336667,12.091 11.681,12.1393333 C11.8046667,12.1626667 11.8946667,12.185 11.944,12.1993333 C11.9673333,12.2056667 11.983,12.211 11.9896667,12.2123333 C12.0493333,12.233 12.1106667,12.2473333 12.172,12.2603333 C12.1733333,12.2706667 12.1733333,12.2813333 12.1743333,12.2903333 C12.1743333,12.2903333 12.1756667,12.297 12.1783333,12.3176667 C12.224,12.6303333 12.6303333,15.5313333 12.629,19.159 C12.629,19.6743333 12.621,20.2043333 12.603,20.7446667 C12.578,21.4766667 13.151,22.0886667 13.8826667,22.1133333 C13.8983333,22.1133333 13.9126667,22.1146667 13.9283333,22.1146667 C14.6393333,22.1146667 15.228,21.5506667 15.2513333,20.8346667 C15.2696667,20.263 15.2786667,19.703 15.2786667,19.16 C15.2786667,16.1966667 15.0246667,13.724 14.884,12.5793333 L19.6756667,8.22666667 C20.487,8.70433333 22.0456667,9.77866667 23.478,11.6536667 C23.6446667,11.8723333 23.897,11.987 24.1523333,11.987 C24.332,11.987 24.513,11.9296667 24.6666667,11.8126667 C25.039,11.5273333 25.1093333,10.996 24.8256667,10.6236667 C22.8086667,7.98966667 20.595,6.767 19.9726667,6.457 L18.4206667,5.18233333 C18.3463333,5.215 18.272,5.24466667 18.194,5.27066667 C17.565,5.48433333 16.8946667,5.45966667 16.2876667,5.20433333 C16.2356667,5.18233333 16.1836667,5.159 16.1316667,5.134 C15.9453333,5.04166667 15.7706667,4.92966667 15.6106667,4.79833333 C15.461,4.67433333 15.3293333,4.53766667 15.2123333,4.392 C15.0143333,4.14333333 14.8633333,3.86733333 14.7656667,3.573 C14.1496667,3.63533333 13.3683333,3.77733333 12.5103333,4.086 C11.1783333,4.565 9.66266667,5.45833333 8.36833333,7.05733333 C8.073,7.42066667 8.129,7.95433333 8.49333333,8.25 C8.651,8.37766667 8.84,8.43866667 9.02733333,8.43866667 C9.27466667,8.43866667 9.51966667,8.332 9.68633333,8.125 C10.7696667,6.79166667 11.9923333,6.078 13.086,5.681 C13.5756667,5.504 14.039,5.39333333 14.4453333,5.32566667 L11.095,9.405 C10.9206667,9.39466667 10.7356667,9.388 10.5376667,9.388 C9.013,9.38266667 6.83333333,9.74733333 4.32566667,11.1236667 C4.349,11.2566667 4.36466667,11.392 4.36466667,11.5313333 C4.36333333,12.793 3.33733333,13.819 2.07566667,13.819 L2.07566667,13.819 Z" id="Fill-2"></path>
                    <path d="M1.112,13.3683333 C1.39966667,13.5196667 1.728,13.6066667 2.07566667,13.6066667 C3.22133333,13.6066667 4.151,12.677 4.151,11.5313333 C4.151,11.4296667 4.142,11.332 4.12766667,11.2343333 C3.983,10.2293333 3.121,9.45566667 2.07566667,9.45566667 C0.929666667,9.45566667 0,10.384 0,11.5313333 C0,12.3293333 0.451666667,13.022 1.112,13.3683333 L1.112,13.3683333 Z" id="Fill-3"></path>
                </g>
                <g id="Page-1" transform="translate(217.000000, 21.000000)" fill="#16A085">
                    <path d="M16.3807692,5.48961538 C16.1719231,5.81269231 15.9103846,6.09807692 15.6007692,6.33115385 C15.2253846,6.615 14.785,6.82230769 14.3,6.92615385 C14.2876923,6.92923077 14.2773077,6.93076923 14.2653846,6.93192308 C14.0296154,6.98 13.7876923,7.00269231 13.5457692,6.99961538 C12.6638462,6.98461538 11.8388462,6.62692308 11.2261538,5.99153846 C11.1326923,5.89538462 11.0457692,5.79307692 10.9661538,5.68653846 L9.12692308,6.08153846 C9.07461538,6.09230769 9.025,6.10884615 8.97692308,6.12692308 C7.86961538,6.35230769 3.96192308,7.23423077 0.565,9.21576923 C0.0723076923,9.50730769 -0.0930769231,10.1426923 0.196923077,10.6369231 C0.389230769,10.9661538 0.736153846,11.1492308 1.09230769,11.1492308 C1.27115385,11.1492308 1.45115385,11.1026923 1.615,11.0065385 C3.38346154,9.96846154 5.41,9.23230769 6.98307692,8.76807692 C7.65461538,8.56961538 8.24230769,8.41961538 8.69423077,8.31269231 L11.3926923,15.5423077 C10.9196154,16.2169231 10.1503846,17.3376923 9.28653846,18.7096154 C7.86653846,20.9676923 6.19307692,23.8776923 5.14730769,26.6557692 C4.83307692,27.4938462 5.25692308,28.4269231 6.09538462,28.7423077 C6.28307692,28.8130769 6.47538462,28.8461538 6.66461538,28.8461538 C7.32115385,28.8461538 7.93884615,28.445 8.18192308,27.7946154 C9.08192308,25.3861538 10.67,22.5884615 12.0280769,20.4373077 C12.7073077,19.3584615 13.3276923,18.4376923 13.7769231,17.7884615 C14.0007692,17.4638462 14.1826923,17.2069231 14.3073077,17.0326923 C14.3688462,16.9457692 14.4169231,16.8796154 14.45,16.8357692 C14.4815385,16.7923077 14.4965385,16.7726923 14.4965385,16.7726923 C14.5073077,16.7592308 14.5146154,16.7457692 14.5238462,16.7323077 C14.7038462,16.785 14.8961538,16.8088462 15.0961538,16.7938462 C15.1096154,16.7938462 15.1380769,16.7923077 15.1834615,16.7923077 C15.5365385,16.785 16.6915385,16.8796154 17.5884615,17.5088462 C18.0453846,17.8246154 18.4661538,18.2526923 18.8084615,18.95 C19.1480769,19.6469231 19.4080769,20.64 19.4096154,22.0823077 C19.4096154,22.5630769 19.3796154,23.0919231 19.315,23.6734615 C19.2142308,24.5626923 19.8542308,25.365 20.7438462,25.4657692 C20.8053846,25.4730769 20.8669231,25.4761538 20.9269231,25.4761538 C21.7411538,25.4761538 22.4430769,24.8646154 22.5361538,24.0369231 C22.6142308,23.3457692 22.6519231,22.6953846 22.6519231,22.0838462 C22.6530769,20.2507692 22.3138462,18.7423077 21.7230769,17.5315385 C20.84,15.7030769 19.3869231,14.6453846 18.1146154,14.1346154 C17.8019231,14.0069231 17.4984615,13.9076923 17.2115385,13.8296154 L15.8576923,7.52384615 C17.4669231,8.22576923 20.2703846,9.77461538 23.1476923,12.8923077 C23.3519231,13.1130769 23.63,13.2257692 23.9092308,13.2257692 C24.16,13.2257692 24.4126923,13.1338462 24.6123077,12.9507692 C25.0330769,12.5615385 25.06,11.9065385 24.6711538,11.4842308 C21.3838462,7.92230769 18.1580769,6.22461538 16.3807692,5.48961538 L16.3807692,5.48961538 Z" id="Fill-1"></path>
                    <path d="M13.5515385,6.74115385 C13.6957692,6.74423077 13.8373077,6.73538462 13.9769231,6.71884615 C14.5657692,6.64653846 15.105,6.40615385 15.5407692,6.04576923 C15.7692308,5.85769231 15.9692308,5.63692308 16.1342308,5.39076923 C16.45,4.92038462 16.6392308,4.35692308 16.6496154,3.75 C16.6780769,2.06884615 15.3396154,0.681923077 13.6569231,0.651923077 C11.9757692,0.623461538 10.5888462,1.96230769 10.5588462,3.645 C10.5453846,4.39769231 10.8069231,5.09 11.25,5.62807692 C11.7969231,6.29346154 12.6215385,6.72461538 13.5515385,6.74115385 L13.5515385,6.74115385 Z" id="Fill-2"></path>
                    <path d="M22.4819231,2.53923077 C22.4819231,3.94230769 21.3461538,5.07807692 19.9430769,5.07807692 C18.5411538,5.07807692 17.4038462,3.94230769 17.4038462,2.53923077 C17.4038462,1.13730769 18.5411538,0 19.9430769,0 C21.3461538,0 22.4819231,1.13730769 22.4819231,2.53923077" id="Fill-3"></path>
                </g>
                <g id="Page-1" transform="translate(623.000000, 0.000000)" fill="#16A085">
                    <path d="M24.8655738,3.06885246 C24.6364754,2.51967213 24.0057377,2.26229508 23.4581967,2.49098361 L18.345082,4.62663934 L14.6610656,4.51639344 L13.6270492,4.37868852 C14.4241803,3.78606557 14.7651639,2.71680328 14.3889344,1.74508197 C13.9377049,0.577868852 12.6266393,-0.00163934426 11.4594262,0.45 C10.2922131,0.901229508 9.71270492,2.21229508 10.1627049,3.3795082 C10.2459016,3.5942623 10.3577869,3.78934426 10.4938525,3.96065574 L8.38893443,3.68032787 C8.03647541,3.63401639 7.68442623,3.76393443 7.44590164,4.02786885 L4.5307377,7.27459016 C4.37868852,7.4442623 4.28401639,7.65901639 4.2602459,7.88606557 L3.8454918,12.0086066 C3.78606557,12.5991803 4.21680328,13.127459 4.80901639,13.1868852 C4.84590164,13.1901639 4.88114754,13.1918033 4.91803279,13.1918033 C5.46393443,13.1918033 5.93155738,12.7786885 5.98729508,12.2229508 L6.36680328,8.45122951 L8.66721311,5.88811475 L8.81639344,5.90737705 L8.70737705,12.5110656 C8.67377049,12.5545082 8.6352459,12.5930328 8.60491803,12.6393443 L5.69754098,17.120082 L1.54344262,15.8893443 C1.0692623,15.7483607 0.554098361,15.9770492 0.349180328,16.4413934 C0.125,16.9442623 0.35204918,17.5348361 0.856557377,17.757377 L5.81598361,19.9586066 C6.31065574,20.1778689 6.91106557,20.0516393 7.26803279,19.6127049 L7.36885246,19.4897541 L10.3213115,15.8745902 L11.5827869,19.9745902 L9.46311475,26.6987705 C9.31270492,27.1803279 9.54795082,27.7118852 10.0217213,27.9151639 C10.5278689,28.1315574 11.1135246,27.8959016 11.329918,27.3901639 L14.2946721,20.4532787 C14.3844262,20.2422131 14.4131148,20.0036885 14.3635246,19.7635246 L14.3360656,19.6368852 L12.8889344,12.7512295 L14.6581967,6.66803279 L18.5147541,6.78319672 C18.6684426,6.78647541 18.8204918,6.75901639 18.9614754,6.7 L24.2893443,4.47459016 C24.8368852,4.24713115 25.0942623,3.61639344 24.8655738,3.06885246 L24.8655738,3.06885246 Z" id="Fill-1"></path>
                    <path d="M8.62418033,22.7459016 C8.62418033,25.4098361 4.62827869,25.4098361 4.62827869,22.7459016 C4.62827869,20.0819672 8.62418033,20.0819672 8.62418033,22.7459016" id="Fill-2"></path>
                </g>
                <g id="Page-1" transform="translate(676.000000, 131.000000)" fill="#2C3E50">
                    <path d="M24.9206667,13.9816667 C24.9243333,15.4793333 23.7136667,16.6966667 22.216,16.7006667 C20.7186667,16.7043333 19.5013333,15.4933333 19.4973333,13.996 C19.4933333,12.4973333 20.7043333,11.28 22.2016667,11.2773333 C23.6993333,11.2733333 24.9166667,12.4843333 24.9206667,13.9816667" id="Fill-1"></path>
                    <path d="M0.659,17.5663333 C1.315,18.0793333 2.26166667,17.9636667 2.77466667,17.3073333 C3.509,16.3683333 4.172,15.8006667 4.72,15.4803333 C5.272,15.16 5.70066667,15.069 6.09,15.065 C6.50666667,15.065 6.91,15.1836667 7.32166667,15.405 C7.90366667,15.7136667 8.461,16.241 8.862,16.715 C8.80733333,17.582 9.08866667,18.487 10.4426667,19.0886667 C12.6393333,19.871 14.121,20.1133333 16.1326667,20 C15.405,20.5456667 14.3723333,21.0456667 12.8593333,21.3386667 C12.336,21.4386667 11.9933333,21.944 12.0936667,22.4673333 C12.1823333,22.9296667 12.586,23.2513333 13.0403333,23.2513333 C13.0793333,23.2513333 13.1183333,23.2473333 13.159,23.2433333 C13.2513333,23.1366667 13.3646667,23.043 13.496,22.9726667 C14.7186667,22.3126667 15.5636667,21.4386667 16.0793333,20.302 C16.125,20.1993333 16.1666667,20.0976667 16.2043333,19.9973333 C16.2136667,19.974 16.2226667,19.9506667 16.2303333,19.927 C16.522,19.1133333 16.556,18.3983333 16.556,18.103 C16.556,17.9516667 16.5483333,17.8593333 16.547,17.8423333 C16.509,17.5273333 16.599,17.211 16.7983333,16.9583333 C16.9973333,16.7056667 17.284,16.5456667 17.604,16.509 C17.651,16.504 17.6993333,16.5013333 17.746,16.5013333 C17.948,16.5013333 18.138,16.552 18.3046667,16.6406667 C18.647,16.8203333 18.8946667,17.16 18.9413333,17.5663333 C18.948,17.6183333 18.966,17.8086667 18.966,18.103 C18.966,18.4166667 18.944,18.802 18.879,19.2356667 C18.8346667,19.5313333 18.7696667,19.849 18.677,20.1823333 C18.7186667,20.1263333 18.7603333,20.0716667 18.7993333,20.0156667 C19.7123333,18.733 19.836,17.608 19.849,17.5013333 C19.8606667,17.3853333 19.8503333,17.272 19.8216667,17.1653333 C19.6733333,16.1966667 18.4506667,15.5196667 17.2733333,15.5846667 C15.9793333,15.5416667 14.2486667,15.547 12.6366667,15.2383333 C12.668,14.858 12.6886667,14.4323333 12.69,13.9686667 C12.69,12.5103333 12.4856667,10.668 11.7746667,8.66266667 C11.0663333,6.659 9.845,4.49733333 7.85933333,2.43633333 C7.28266667,1.836 6.328,1.81766667 5.728,2.396 C5.12766667,2.97266667 5.10933333,3.927 5.68733333,4.52733333 C7.371,6.28 8.35533333,8.043 8.93366667,9.67066667 C9.41133333,11.0183333 9.60666667,12.276 9.66,13.3373333 C9.384,13.1303333 9.082,12.9323333 8.754,12.7553333 C8.00666667,12.3516667 7.103,12.0546667 6.09233333,12.0546667 C5.155,12.052 4.155,12.319 3.198,12.884 C2.23833333,13.448 1.31266667,14.2916667 0.402333333,15.4543333 C-0.113333333,16.1066667 0.00266666667,17.0546667 0.659,17.5663333 L0.659,17.5663333 Z" id="Fill-2"></path>
                    <path d="M18.6993333,17.5936667 C18.6576667,17.2383333 18.427,16.9516667 18.121,16.8203333 C17.9713333,16.7566667 17.8033333,16.728 17.629,16.7486667 C17.1003333,16.8113333 16.7213333,17.289 16.784,17.819 L16.784,17.8203333 C16.7863333,17.8476667 16.7943333,17.9466667 16.7943333,18.1016667 C16.7956667,18.4243333 16.7576667,18.9843333 16.5756667,19.629 C16.543,19.7423333 16.5066667,19.8593333 16.465,19.978 C16.4153333,20.1173333 16.3606667,20.2576667 16.297,20.401 C15.8736667,21.3373333 15.134,22.3346667 13.698,23.134 C13.668,23.151 13.6393333,23.168 13.608,23.185 C13.1393333,23.4363333 12.9623333,24.0206667 13.2136667,24.491 C13.388,24.815 13.72,25 14.0636667,25 C14.2173333,25 14.3736667,24.9636667 14.5183333,24.8853333 C16.3983333,23.8826667 17.4856667,22.4766667 18.056,21.1886667 C18.134,21.0116667 18.203,20.8386667 18.2656667,20.6666667 C18.4243333,20.2266667 18.5286667,19.81 18.5976667,19.4336667 C18.6966667,18.8866667 18.7213333,18.4243333 18.7213333,18.1016667 C18.7226667,17.8073333 18.703,17.625 18.6993333,17.5936667 L18.6993333,17.5936667 Z" id="Fill-3"></path>
                    <path d="M15.724,2.362 C15.724,3.66533333 14.6666667,4.72266667 13.362,4.72266667 C12.0573333,4.72266667 11,3.66533333 11,2.362 C11,1.05733333 12.0573333,0 13.362,0 C14.6666667,0 15.724,1.05733333 15.724,2.362" id="Fill-4"></path>
                </g>
                <g id="Page-1" transform="translate(760.000000, 3.000000)" fill="#2C3E50">
                    <path d="M23.7123077,0.166923077 L1.28769231,0.166923077 C0.650384615,0.166923077 0.132307692,0.685 0.132307692,1.32076923 L0.132307692,16.3715385 L1.71115385,16.3715385 L1.71115385,15.5319231 L3.59692308,14.3523077 L11.3223077,14.3523077 C10.9853846,13.9603846 10.7046154,13.5184615 10.4942308,13.0365385 L10.0884615,13.0365385 L10.0884615,12.4188462 L10.2673077,12.4188462 C10.2253846,12.2776923 10.1892308,12.1334615 10.1576923,11.9861538 L10.0884615,11.9861538 L10.0884615,11.5369231 C10.0646154,11.3311538 10.0480769,11.1223077 10.0480769,10.9088462 C10.0480769,10.5588462 10.0826923,10.2176923 10.1473077,9.88730769 L10.0884615,9.88730769 L10.0884615,9.27 L10.3096154,9.27 C10.3576923,9.12269231 10.4084615,8.97846154 10.4688462,8.83730769 L10.0884615,8.83730769 L10.0884615,8.21961538 L10.7061538,8.21961538 L10.7061538,8.35192308 C10.8338462,8.12038462 10.9796154,7.89961538 11.1388462,7.69230769 L11.1388462,7.16961538 L11.5942308,7.16961538 C11.7788462,6.98461538 11.9788462,6.81653846 12.1888462,6.66153846 L12.1888462,6.12076923 L12.8065385,6.12076923 L12.8065385,6.27115385 C13.4330769,5.93615385 14.1330769,5.72884615 14.8769231,5.68807692 L14.285,5.68807692 L14.285,5.07076923 L14.9023077,5.07076923 L14.9023077,5.68653846 C14.985,5.68192308 15.0676923,5.67923077 15.1519231,5.67923077 C15.2134615,5.67923077 15.2734615,5.68192308 15.335,5.685 L15.335,5.07230769 L15.9526923,5.07230769 L15.9526923,5.68961538 L15.4388462,5.68961538 C16.1538462,5.73153846 16.8269231,5.92692308 17.4353846,6.23961538 L17.4353846,6.12230769 L18.0530769,6.12230769 L18.0530769,6.61192308 C18.2888462,6.77884615 18.5096154,6.96653846 18.7138462,7.17115385 L19.1015385,7.17115385 L19.1015385,7.60230769 C19.2623077,7.80192308 19.4034615,8.01846154 19.5342308,8.24076923 L19.5342308,8.21961538 L20.1519231,8.21961538 L20.1519231,8.83730769 L19.8376923,8.83730769 C19.8976923,8.97846154 19.9488462,9.12269231 19.9969231,9.27 L20.1519231,9.27 L20.1519231,9.84538462 C20.2207692,10.1892308 20.2584615,10.5453846 20.2584615,10.9088462 C20.2584615,11.2726923 20.2207692,11.6284615 20.1519231,11.9726923 L20.1519231,11.9861538 L20.1488462,11.9861538 C20.1188462,12.1334615 20.0811538,12.2776923 20.0392308,12.4188462 L20.1519231,12.4188462 L20.1519231,13.0365385 L19.8123077,13.0365385 C19.7476923,13.1834615 19.6769231,13.3292308 19.6003846,13.4692308 L20.1519231,13.4692308 L20.1519231,13.9196154 L19.5342308,13.9196154 L19.5342308,13.5773077 C19.3734615,13.8523077 19.1903846,14.1119231 18.9842308,14.3523077 L21.4046154,14.3523077 L23.2903846,15.5319231 L23.2903846,16.3715385 L24.8692308,16.3715385 L24.8692308,1.32076923 C24.8676923,0.685 24.3496154,0.166923077 23.7123077,0.166923077 L23.7123077,0.166923077 Z M10.0873077,13.4692308 L10.7046154,13.4692308 L10.7046154,13.9196154 L10.0873077,13.9196154 L10.0873077,13.4692308 Z M3.31730769,14.0173077 L1.70961538,15.0226923 L1.70961538,14.6288462 L3.31730769,13.6238462 L3.31730769,14.0173077 Z M3.31730769,13.1130769 L1.70961538,14.1180769 L1.70961538,13.2211538 L3.31730769,12.5284615 L3.31730769,13.1130769 Z M3.31730769,12.0569231 L1.70961538,12.7492308 L1.70961538,11.9319231 L3.31730769,11.4423077 L3.31730769,12.0569231 Z M3.31730769,10.99 L1.70961538,11.48 L1.70961538,10.6565385 L3.31730769,10.3607692 L3.31730769,10.99 Z M3.31730769,9.92192308 L1.70961538,10.2176923 L1.70961538,9.45 L3.31730769,9.29230769 L3.31730769,9.92192308 Z M3.31730769,8.85653846 L1.70961538,9.01461538 L1.70961538,8.22115385 L3.31730769,8.22115385 L3.31730769,8.85653846 Z M3.31730769,7.78846154 L1.70961538,7.78846154 L1.70961538,6.95923077 L3.31730769,7.14846154 L3.31730769,7.78846154 Z M3.31730769,6.71269231 L1.70961538,6.52346154 L1.70961538,5.75576923 L3.31730769,6.08307692 L3.31730769,6.71269231 Z M3.31730769,5.64153846 L1.70961538,5.31384615 L1.70961538,4.49538462 L3.31730769,5.01653846 L3.31730769,5.64153846 Z M3.31730769,4.56115385 L1.70961538,4.03846154 L1.70961538,3.22269231 L3.31730769,3.94538462 L3.31730769,4.56115385 Z M3.31730769,3.47192308 L1.70961538,2.74923077 L1.70961538,2.03884615 L3.31730769,3.04384615 L3.31730769,3.47192308 Z M2.05846154,1.74423077 L2.72538462,1.74423077 L3.98269231,2.70576923 L3.59538462,2.70576923 L2.05846154,1.74423077 Z M4.40653846,13.9196154 L3.75,13.9196154 L3.75,13.4692308 L4.40653846,13.4692308 L4.40653846,13.9196154 Z M4.40653846,13.0365385 L3.75,13.0365385 L3.75,12.4188462 L4.40653846,12.4188462 L4.40653846,13.0365385 Z M4.40653846,11.9876923 L3.75,11.9876923 L3.75,11.37 L4.40653846,11.37 L4.40653846,11.9876923 Z M4.40653846,10.9376923 L3.75,10.9376923 L3.75,10.32 L4.40653846,10.32 L4.40653846,10.9376923 Z M4.40653846,9.88730769 L3.75,9.88730769 L3.75,9.27 L4.40653846,9.27 L4.40653846,9.88730769 Z M4.40653846,8.83846154 L3.75,8.83846154 L3.75,8.22115385 L4.40653846,8.22115385 L4.40653846,8.83846154 Z M4.40653846,7.78846154 L3.75,7.78846154 L3.75,7.17115385 L4.40653846,7.17115385 L4.40653846,7.78846154 Z M4.40653846,6.73846154 L3.75,6.73846154 L3.75,6.12076923 L4.40653846,6.12076923 L4.40653846,6.73846154 Z M4.40653846,5.68961538 L3.75,5.68961538 L3.75,5.07230769 L4.40653846,5.07230769 L4.40653846,5.68961538 Z M4.40653846,4.63923077 L3.75,4.63923077 L3.75,4.02192308 L4.40653846,4.02192308 L4.40653846,4.63923077 Z M4.40653846,3.59076923 L3.75,3.59076923 L3.75,3.14 L4.40653846,3.14 L4.40653846,3.59076923 Z M3.43884615,1.74423077 L4.25038462,1.74423077 L5.16846154,2.70576923 L4.69653846,2.70576923 L3.43884615,1.74423077 Z M5.45692308,13.9196154 L4.83923077,13.9196154 L4.83923077,13.4692308 L5.45692308,13.4692308 L5.45692308,13.9196154 Z M5.45692308,13.0365385 L4.83923077,13.0365385 L4.83923077,12.4188462 L5.45692308,12.4188462 L5.45692308,13.0365385 Z M5.45692308,11.9876923 L4.83923077,11.9876923 L4.83923077,11.37 L5.45692308,11.37 L5.45692308,11.9876923 Z M5.45692308,10.9376923 L4.83923077,10.9376923 L4.83923077,10.32 L5.45692308,10.32 L5.45692308,10.9376923 Z M5.45692308,9.88730769 L4.83923077,9.88730769 L4.83923077,9.27 L5.45692308,9.27 L5.45692308,9.88730769 Z M5.45692308,8.83846154 L4.83923077,8.83846154 L4.83923077,8.22115385 L5.45692308,8.22115385 L5.45692308,8.83846154 Z M5.45692308,7.78846154 L4.83923077,7.78846154 L4.83923077,7.17115385 L5.45692308,7.17115385 L5.45692308,7.78846154 Z M5.45692308,6.73846154 L4.83923077,6.73846154 L4.83923077,6.12076923 L5.45692308,6.12076923 L5.45692308,6.73846154 Z M5.45692308,5.68961538 L4.83923077,5.68961538 L4.83923077,5.07230769 L5.45692308,5.07230769 L5.45692308,5.68961538 Z M5.45692308,4.63923077 L4.83923077,4.63923077 L4.83923077,4.02192308 L5.45692308,4.02192308 L5.45692308,4.63923077 Z M5.45692308,3.59076923 L4.83923077,3.59076923 L4.83923077,3.14 L5.45692308,3.14 L5.45692308,3.59076923 Z M4.84807692,1.74423077 L5.71076923,1.74423077 L6.32653846,2.70576923 L5.76461538,2.70576923 L4.84807692,1.74423077 Z M6.50538462,13.9196154 L5.88807692,13.9196154 L5.88807692,13.4692308 L6.50538462,13.4692308 L6.50538462,13.9196154 Z M6.50538462,13.0365385 L5.88807692,13.0365385 L5.88807692,12.4188462 L6.50538462,12.4188462 L6.50538462,13.0365385 Z M6.50538462,11.9876923 L5.88807692,11.9876923 L5.88807692,11.37 L6.50538462,11.37 L6.50538462,11.9876923 Z M6.50538462,10.9376923 L5.88807692,10.9376923 L5.88807692,10.32 L6.50538462,10.32 L6.50538462,10.9376923 Z M6.50538462,9.88730769 L5.88807692,9.88730769 L5.88807692,9.27 L6.50538462,9.27 L6.50538462,9.88730769 Z M6.50538462,8.83846154 L5.88807692,8.83846154 L5.88807692,8.22115385 L6.50538462,8.22115385 L6.50538462,8.83846154 Z M6.50538462,7.78846154 L5.88807692,7.78846154 L5.88807692,7.17115385 L6.50538462,7.17115385 L6.50538462,7.78846154 Z M6.50538462,6.73846154 L5.88807692,6.73846154 L5.88807692,6.12076923 L6.50538462,6.12076923 L6.50538462,6.73846154 Z M6.50538462,5.68961538 L5.88807692,5.68961538 L5.88807692,5.07230769 L6.50538462,5.07230769 L6.50538462,5.68961538 Z M6.50538462,4.63923077 L5.88807692,4.63923077 L5.88807692,4.02192308 L6.50538462,4.02192308 L6.50538462,4.63923077 Z M6.50538462,3.59076923 L5.88807692,3.59076923 L5.88807692,3.14 L6.50538462,3.14 L6.50538462,3.59076923 Z M6.22307692,1.74423077 L6.70807692,1.74423077 L7.36192308,2.70576923 L6.84038462,2.70576923 L6.22307692,1.74423077 Z M7.55576923,13.9196154 L6.93807692,13.9196154 L6.93807692,13.4692308 L7.55576923,13.4692308 L7.55576923,13.9196154 Z M7.55576923,13.0365385 L6.93807692,13.0365385 L6.93807692,12.4188462 L7.55576923,12.4188462 L7.55576923,13.0365385 Z M7.55576923,11.9876923 L6.93807692,11.9876923 L6.93807692,11.37 L7.55576923,11.37 L7.55576923,11.9876923 Z M7.55576923,10.9376923 L6.93807692,10.9376923 L6.93807692,10.32 L7.55576923,10.32 L7.55576923,10.9376923 Z M7.55576923,9.88730769 L6.93807692,9.88730769 L6.93807692,9.27 L7.55576923,9.27 L7.55576923,9.88730769 Z M7.55576923,8.83846154 L6.93807692,8.83846154 L6.93807692,8.22115385 L7.55576923,8.22115385 L7.55576923,8.83846154 Z M7.55576923,7.78846154 L6.93807692,7.78846154 L6.93807692,7.17115385 L7.55576923,7.17115385 L7.55576923,7.78846154 Z M7.55576923,6.73846154 L6.93807692,6.73846154 L6.93807692,6.12076923 L7.55576923,6.12076923 L7.55576923,6.73846154 Z M7.55576923,5.68961538 L6.93807692,5.68961538 L6.93807692,5.07230769 L7.55576923,5.07230769 L7.55576923,5.68961538 Z M7.55576923,4.63923077 L6.93807692,4.63923077 L6.93807692,4.02192308 L7.55576923,4.02192308 L7.55576923,4.63923077 Z M7.55576923,3.59076923 L6.93807692,3.59076923 L6.93807692,3.14 L7.55576923,3.14 L7.55576923,3.59076923 Z M7.23269231,1.74423077 L7.75538462,1.74423077 L8.41192308,2.70576923 L7.88615385,2.70576923 L7.23269231,1.74423077 Z M8.60423077,13.9196154 L7.98692308,13.9196154 L7.98692308,13.4692308 L8.60423077,13.4692308 L8.60423077,13.9196154 Z M8.60423077,13.0365385 L7.98692308,13.0365385 L7.98692308,12.4188462 L8.60423077,12.4188462 L8.60423077,13.0365385 Z M8.60423077,11.9876923 L7.98692308,11.9876923 L7.98692308,11.37 L8.60423077,11.37 L8.60423077,11.9876923 Z M8.60423077,10.9376923 L7.98692308,10.9376923 L7.98692308,10.32 L8.60423077,10.32 L8.60423077,10.9376923 Z M8.60423077,9.88730769 L7.98692308,9.88730769 L7.98692308,9.27 L8.60423077,9.27 L8.60423077,9.88730769 Z M8.60423077,8.83846154 L7.98692308,8.83846154 L7.98692308,8.22115385 L8.60423077,8.22115385 L8.60423077,8.83846154 Z M8.60423077,7.78846154 L7.98692308,7.78846154 L7.98692308,7.17115385 L8.60423077,7.17115385 L8.60423077,7.78846154 Z M8.60423077,6.73846154 L7.98692308,6.73846154 L7.98692308,6.12076923 L8.60423077,6.12076923 L8.60423077,6.73846154 Z M8.60423077,5.68961538 L7.98692308,5.68961538 L7.98692308,5.07230769 L8.60423077,5.07230769 L8.60423077,5.68961538 Z M8.60423077,4.63923077 L7.98692308,4.63923077 L7.98692308,4.02192308 L8.60423077,4.02192308 L8.60423077,4.63923077 Z M8.60423077,3.59076923 L7.98692308,3.59076923 L7.98692308,3.14 L8.60423077,3.14 L8.60423077,3.59076923 Z M8.27961538,1.74423077 L8.91076923,1.74423077 L9.48923077,2.70576923 L8.93615385,2.70576923 L8.27961538,1.74423077 Z M9.65461538,13.9196154 L9.03692308,13.9196154 L9.03692308,13.4692308 L9.65461538,13.4692308 L9.65461538,13.9196154 Z M9.65461538,13.0365385 L9.03692308,13.0365385 L9.03692308,12.4188462 L9.65461538,12.4188462 L9.65461538,13.0365385 Z M9.65461538,11.9876923 L9.03692308,11.9876923 L9.03692308,11.37 L9.65461538,11.37 L9.65461538,11.9876923 Z M9.65461538,10.9376923 L9.03692308,10.9376923 L9.03692308,10.32 L9.65461538,10.32 L9.65461538,10.9376923 Z M9.65461538,9.88730769 L9.03692308,9.88730769 L9.03692308,9.27 L9.65461538,9.27 L9.65461538,9.88730769 Z M9.65461538,8.83846154 L9.03692308,8.83846154 L9.03692308,8.22115385 L9.65461538,8.22115385 L9.65461538,8.83846154 Z M9.65461538,7.78846154 L9.03692308,7.78846154 L9.03692308,7.17115385 L9.65461538,7.17115385 L9.65461538,7.78846154 Z M9.65461538,6.73846154 L9.03692308,6.73846154 L9.03692308,6.12076923 L9.65461538,6.12076923 L9.65461538,6.73846154 Z M9.65461538,5.68961538 L9.03692308,5.68961538 L9.03692308,5.07230769 L9.65461538,5.07230769 L9.65461538,5.68961538 Z M9.65461538,4.63923077 L9.03692308,4.63923077 L9.03692308,4.02192308 L9.65461538,4.02192308 L9.65461538,4.63923077 Z M9.65461538,3.59076923 L9.03692308,3.59076923 L9.03692308,3.14 L9.65461538,3.14 L9.65461538,3.59076923 Z M9.99384615,2.70576923 L9.41538462,1.74423077 L10.3561538,1.74423077 L10.6326923,2.70576923 L9.99384615,2.70576923 Z M10.7046154,7.78846154 L10.0873077,7.78846154 L10.0873077,7.17115385 L10.7046154,7.17115385 L10.7046154,7.78846154 Z M10.7046154,6.73846154 L10.0873077,6.73846154 L10.0873077,6.12076923 L10.7046154,6.12076923 L10.7046154,6.73846154 Z M10.7046154,5.68961538 L10.0873077,5.68961538 L10.0873077,5.07230769 L10.7046154,5.07230769 L10.7046154,5.68961538 Z M10.7046154,4.63923077 L10.0873077,4.63923077 L10.0873077,4.02192308 L10.7046154,4.02192308 L10.7046154,4.63923077 Z M10.7046154,3.59076923 L10.0873077,3.59076923 L10.0873077,3.14 L10.7046154,3.14 L10.7046154,3.59076923 Z M11.7534615,6.73846154 L11.1357692,6.73846154 L11.1357692,6.12076923 L11.7534615,6.12076923 L11.7534615,6.73846154 Z M11.7534615,5.68961538 L11.1357692,5.68961538 L11.1357692,5.07230769 L11.7534615,5.07230769 L11.7534615,5.68961538 Z M11.7534615,4.63923077 L11.1357692,4.63923077 L11.1357692,4.02192308 L11.7534615,4.02192308 L11.7534615,4.63923077 Z M11.7534615,3.59076923 L11.1357692,3.59076923 L11.1357692,3.14 L11.7534615,3.14 L11.7534615,3.59076923 Z M11.7534615,2.70576923 L11.0830769,2.70576923 L10.8053846,1.74423077 L11.7534615,1.74423077 L11.7534615,2.70576923 Z M12.8034615,5.68961538 L12.1861538,5.68961538 L12.1861538,5.07230769 L12.8034615,5.07230769 L12.8034615,5.68961538 Z M12.8034615,4.63923077 L12.1861538,4.63923077 L12.1861538,4.02192308 L12.8034615,4.02192308 L12.8034615,4.63923077 Z M12.8034615,3.59076923 L12.1861538,3.59076923 L12.1861538,3.14 L12.8034615,3.14 L12.8034615,3.59076923 Z M12.8561538,2.70576923 L12.1876923,2.70576923 L12.1876923,1.74423077 L13.1280769,1.74423077 L12.8561538,2.70576923 Z M13.8523077,5.68961538 L13.2346154,5.68961538 L13.2346154,5.07230769 L13.8523077,5.07230769 L13.8523077,5.68961538 Z M13.8523077,4.63923077 L13.2346154,4.63923077 L13.2346154,4.02192308 L13.8523077,4.02192308 L13.8523077,4.63923077 Z M13.8523077,3.59076923 L13.2346154,3.59076923 L13.2346154,3.14 L13.8523077,3.14 L13.8523077,3.59076923 Z M13.9288462,2.70576923 L13.3053846,2.70576923 L13.5757692,1.74423077 L14.3584615,1.74423077 L13.9288462,2.70576923 Z M14.9023077,4.63923077 L14.285,4.63923077 L14.285,4.02192308 L14.9023077,4.02192308 L14.9023077,4.63923077 Z M14.9023077,3.59076923 L14.285,3.59076923 L14.285,3.14 L14.9023077,3.14 L14.9023077,3.59076923 Z M14.9969231,2.70576923 L14.4019231,2.70576923 L14.8315385,1.74423077 L15.5846154,1.74423077 L14.9969231,2.70576923 Z M15.9526923,4.63923077 L15.335,4.63923077 L15.335,4.02192308 L15.9526923,4.02192308 L15.9526923,4.63923077 Z M15.9526923,3.59076923 L15.335,3.59076923 L15.335,3.14 L15.9526923,3.14 L15.9526923,3.59076923 Z M15.5046154,2.70576923 L16.0923077,1.74423077 L16.7984615,1.74423077 L16.0607692,2.70576923 L15.5046154,2.70576923 Z M17.0011538,5.68961538 L16.3838462,5.68961538 L16.3838462,5.07230769 L17.0011538,5.07230769 L17.0011538,5.68961538 Z M17.0011538,4.63923077 L16.3838462,4.63923077 L16.3838462,4.02192308 L17.0011538,4.02192308 L17.0011538,4.63923077 Z M17.0011538,3.59076923 L16.3838462,3.59076923 L16.3838462,3.14 L17.0011538,3.14 L17.0011538,3.59076923 Z M17.1169231,2.70576923 L16.6076923,2.70576923 L17.3453846,1.74423077 L17.9146154,1.74423077 L17.1169231,2.70576923 Z M18.0515385,5.68961538 L17.4338462,5.68961538 L17.4338462,5.07230769 L18.0515385,5.07230769 L18.0515385,5.68961538 Z M18.0515385,4.63923077 L17.4338462,4.63923077 L17.4338462,4.02192308 L18.0515385,4.02192308 L18.0515385,4.63923077 Z M18.0515385,3.59076923 L17.4338462,3.59076923 L17.4338462,3.14 L18.0515385,3.14 L18.0515385,3.59076923 Z M17.6788462,2.70576923 L18.4765385,1.74423077 L19.0296154,1.74423077 L18.1715385,2.70576923 L17.6788462,2.70576923 Z M19.1015385,6.73846154 L18.4842308,6.73846154 L18.4842308,6.12076923 L19.1015385,6.12076923 L19.1015385,6.73846154 Z M19.1015385,5.68961538 L18.4842308,5.68961538 L18.4842308,5.07230769 L19.1015385,5.07230769 L19.1015385,5.68961538 Z M19.1015385,4.63923077 L18.4842308,4.63923077 L18.4842308,4.02192308 L19.1015385,4.02192308 L19.1015385,4.63923077 Z M19.1015385,3.59076923 L18.4842308,3.59076923 L18.4842308,3.14 L19.1015385,3.14 L19.1015385,3.59076923 Z M19.2323077,2.70576923 L18.75,2.70576923 L19.6076923,1.74423077 L20.2703846,1.74423077 L19.2323077,2.70576923 Z M20.1503846,7.78846154 L19.5326923,7.78846154 L19.5326923,7.17115385 L20.1503846,7.17115385 L20.1503846,7.78846154 Z M20.1503846,6.73846154 L19.5326923,6.73846154 L19.5326923,6.12076923 L20.1503846,6.12076923 L20.1503846,6.73846154 Z M20.1503846,5.68961538 L19.5326923,5.68961538 L19.5326923,5.07230769 L20.1503846,5.07230769 L20.1503846,5.68961538 Z M20.1503846,4.63923077 L19.5326923,4.63923077 L19.5326923,4.02192308 L20.1503846,4.02192308 L20.1503846,4.63923077 Z M20.1503846,3.59076923 L19.5326923,3.59076923 L19.5326923,3.14 L20.1503846,3.14 L20.1503846,3.59076923 Z M19.8692308,2.70576923 L20.9088462,1.74423077 L21.6180769,1.74423077 L20.3003846,2.70576923 L19.8692308,2.70576923 Z M21.25,13.9196154 L20.5846154,13.9196154 L20.5846154,13.4692308 L21.25,13.4692308 L21.25,13.9196154 Z M21.25,13.0365385 L20.5846154,13.0365385 L20.5846154,12.4188462 L21.25,12.4188462 L21.25,13.0365385 Z M21.25,11.9876923 L20.5846154,11.9876923 L20.5846154,11.37 L21.25,11.37 L21.25,11.9876923 Z M21.25,10.9376923 L20.5846154,10.9376923 L20.5846154,10.32 L21.25,10.32 L21.25,10.9376923 Z M21.25,9.88730769 L20.5846154,9.88730769 L20.5846154,9.27 L21.25,9.27 L21.25,9.88730769 Z M21.25,8.83846154 L20.5846154,8.83846154 L20.5846154,8.22115385 L21.25,8.22115385 L21.25,8.83846154 Z M21.25,7.78846154 L20.5846154,7.78846154 L20.5846154,7.17115385 L21.25,7.17115385 L21.25,7.78846154 Z M21.25,6.73846154 L20.5846154,6.73846154 L20.5846154,6.12076923 L21.25,6.12076923 L21.25,6.73846154 Z M21.25,5.68961538 L20.5846154,5.68961538 L20.5846154,5.07230769 L21.25,5.07230769 L21.25,5.68961538 Z M21.25,4.63923077 L20.5846154,4.63923077 L20.5846154,4.02192308 L21.25,4.02192308 L21.25,4.63923077 Z M21.25,3.59076923 L20.5846154,3.59076923 L20.5846154,3.14 L21.25,3.14 L21.25,3.59076923 Z M21.0338462,2.70576923 L22.3511538,1.74423077 L22.9415385,1.74423077 L21.4030769,2.70576923 L21.0338462,2.70576923 Z M23.2888462,15.0226923 L21.6811538,14.0173077 L21.6811538,13.6538462 L23.2888462,14.6588462 L23.2888462,15.0226923 Z M23.2888462,14.1480769 L21.6811538,13.1430769 L21.6811538,12.5480769 L23.2888462,13.2407692 L23.2888462,14.1480769 Z M23.2888462,12.7703846 L21.6811538,12.0776923 L21.6811538,11.4573077 L23.2888462,11.9469231 L23.2888462,12.7703846 Z M23.2888462,11.495 L21.6811538,11.005 L21.6811538,10.3711538 L23.2888462,10.6669231 L23.2888462,11.495 Z M23.2888462,10.2269231 L21.6811538,9.93076923 L21.6811538,9.29692308 L23.2888462,9.45461538 L23.2888462,10.2269231 Z M23.2888462,9.02038462 L21.6811538,8.86269231 L21.6811538,8.22269231 L23.2888462,8.22269231 L23.2888462,9.02038462 Z M23.2888462,7.78846154 L21.6811538,7.78846154 L21.6811538,7.14230769 L23.2888462,6.95307692 L23.2888462,7.78846154 Z M23.2888462,6.51730769 L21.6811538,6.70692308 L21.6811538,6.07115385 L23.2888462,5.74384615 L23.2888462,6.51730769 Z M23.2888462,5.305 L21.6811538,5.63269231 L21.6811538,5.00153846 L23.2888462,4.47884615 L23.2888462,5.305 Z M23.2888462,4.025 L21.6811538,4.54769231 L21.6811538,3.92576923 L23.2888462,3.20307692 L23.2888462,4.025 Z M23.2888462,2.72692308 L21.6811538,3.44961538 L21.6811538,3.04230769 L23.2888462,2.03730769 L23.2888462,2.72692308 Z" id="Fill-2"></path>
                    <path d="M15.1519231,6.28461538 C12.6576923,6.28461538 10.6296154,8.35923077 10.6296154,10.9103846 C10.6296154,13.4615385 12.6576923,15.5365385 15.1519231,15.5365385 C17.6457692,15.5365385 19.6738462,13.4615385 19.6738462,10.9103846 C19.6738462,8.35923077 17.6457692,6.28461538 15.1519231,6.28461538 L15.1519231,6.28461538 Z M16.6242308,7.20384615 L16.815,7.24461538 C17.3046154,7.47884615 17.7403846,7.81538462 18.0965385,8.22576923 L18.1069231,8.26153846 C18.2407692,8.69576923 18.3007692,9.05653846 18.1984615,9.45615385 L16.8088462,9.81653846 L15.4719231,8.84461538 L15.4611538,7.44576923 C15.8715385,7.21 16.2634615,7.12730769 16.6242308,7.20384615 L16.6242308,7.20384615 Z M12.2369231,8.19115385 C12.6442308,7.73269231 13.1503846,7.37076923 13.7246154,7.14076923 L13.8234615,7.14076923 C14.2876923,7.14076923 14.6438462,7.285 15.0315385,7.46846154 L15.0419231,8.84615385 L13.705,9.81807692 L12.4653846,9.51615385 C12.2415385,9.27115385 12.24,8.79192308 12.24,8.23615385 L12.24,8.19115385 L12.2369231,8.19115385 Z M11.66,12.7088462 L11.6119231,12.6861538 C11.4061538,12.2565385 11.2696154,11.785 11.2261538,11.2861538 L11.235,11.2769231 C11.3115385,11.2003846 11.3838462,11.0515385 11.4826923,10.8473077 C11.6392308,10.5257692 11.8584615,10.0796154 12.1392308,9.88115385 L13.5711538,10.23 L14.0803846,11.8 L13.1926923,13.1280769 C12.7253846,13.1069231 12.2115385,12.9703846 11.66,12.7088462 L11.66,12.7088462 Z M16.1419231,14.7838462 L16.1011538,14.8361538 C15.7961538,14.9142308 15.4792308,14.9596154 15.1519231,14.9596154 C14.8842308,14.9596154 14.6230769,14.9307692 14.3703846,14.88 L14.3703846,14.8769231 L14.3238462,14.8226923 C13.9619231,14.4080769 13.7123077,13.9469231 13.5380769,13.3892308 L14.4307692,12.0538462 L16.0803846,12.0538462 L16.9365385,13.3834615 C16.7819231,13.8373077 16.5296154,14.2865385 16.1419231,14.7838462 L16.1419231,14.7838462 Z M18.6223077,12.7403846 C18.2196154,12.9580769 17.7869231,13.0769231 17.2838462,13.1188462 L16.4346154,11.8 L16.9442308,10.2315385 L18.3834615,9.85730769 C18.7846154,10.1984615 18.9376923,10.6565385 19.0580769,11.1026923 L19.0819231,11.1930769 C19.0446154,11.7338462 18.9076923,12.2461538 18.6823077,12.7088462 L18.6223077,12.7403846 Z" id="Fill-4"></path>
                </g>
                <g id="Page-1" transform="translate(827.000000, 267.000000)" fill="#C0392B">
                    <path d="M9.39528302,9.71792453 L0.00566037736,9.71792453 L0.00566037736,10.3349057 L0.313207547,10.3349057 L0.313207547,17.1231132 L7.10141509,17.1231132 L7.10141509,10.3349057 L9.39528302,10.3349057 C9.375,10.2353774 9.36415094,10.1320755 9.36415094,10.0254717 C9.36415094,9.92028302 9.375,9.81698113 9.39528302,9.71792453 L9.39528302,9.71792453 Z M6.79150943,16.8136792 L3.70707547,16.8136792 L3.70707547,13.7287736 L0.620754717,13.7287736 L0.620754717,10.6443396 L3.70518868,10.6443396 L3.70518868,13.7287736 L6.79009434,13.7287736 L6.79009434,16.8136792 L6.79150943,16.8136792 Z" id="Fill-1"></path>
                    <path d="M23.9646226,2.68443396 C24.3995283,4.5509434 23.2386792,6.41603774 21.3721698,6.8504717 C19.5056604,7.28537736 17.6391509,6.1245283 17.2061321,4.25801887 C16.7712264,2.39150943 17.9320755,0.526886792 19.7985849,0.0919811321 C21.6650943,-0.342924528 23.529717,0.817924528 23.9646226,2.68443396" id="Fill-2"></path>
                    <path d="M20.2481132,7.65754717 C19.7650943,7.75896226 19.3726415,8.06320755 19.0853774,8.48301887 L20.9240566,8.48301887 C21.7754717,8.48301887 22.4665094,9.1759434 22.4665094,10.0254717 C22.4665094,10.8768868 21.7735849,11.5674528 20.9240566,11.5674528 L18.6966981,11.5674528 C19.0542453,13.7254717 19.7561321,16.7028302 19.3174528,19.2325472 C19.3117925,19.2971698 19.3066038,19.3599057 19.3009434,19.4207547 C18.9731132,20.2037736 18.3334906,22.1882075 18.3353774,25.6466981 C18.3353774,27.7877358 18.5768868,30.4943396 19.2787736,33.8424528 C19.4683962,34.7509434 20.270283,35.3754717 21.1636792,35.3754717 C21.2948113,35.3754717 21.4273585,35.3627358 21.5617925,35.3330189 C22.604717,35.1136792 23.2716981,34.0929245 23.0542453,33.05 C22.4,29.9363208 22.1919811,27.4948113 22.1919811,25.6448113 C22.1919811,23.7948113 22.4,22.534434 22.5882075,21.7716981 C22.6103774,21.6778302 22.6339623,21.5910377 22.6561321,21.5117925 C23.540566,21.2745283 24.3183962,20.6311321 24.690566,19.0466981 C25.2212264,15.6377358 25.0754717,13.6056604 24.1466981,10.454717 C23.4561321,8.16981132 21.5764151,7.38113208 20.2481132,7.65754717 L20.2481132,7.65754717 Z" id="Fill-3"></path>
                    <path d="M22.1589623,10.0254717 C22.1589623,9.34386792 21.6061321,8.79103774 20.9240566,8.79103774 L10.9080189,8.79103774 C10.3330189,8.79103774 9.85235849,9.18537736 9.71415094,9.71603774 C9.68820755,9.81556604 9.67358491,9.91839623 9.67358491,10.0235849 C9.67358491,10.1306604 9.68820755,10.2334906 9.71415094,10.3330189 C9.85235849,10.865566 10.3330189,11.2580189 10.9080189,11.2580189 L20.9259434,11.2580189 C21.6061321,11.2599057 22.1589623,10.7070755 22.1589623,10.0254717 L22.1589623,10.0254717 Z" id="Fill-4"></path>
                </g>
            </g>
        </g>
    </g>
</svg>