<svg width="175px" height="59px" viewBox="0 0 175 59" version="1.1" xmlns="http://www.w3.org/2000/svg">
    <title>Group 2</title>
    <desc>Created with Sketch.</desc>
    <defs></defs>
    <g id="Home" stroke="none" stroke-width="1" fill="none" fill-rule="evenodd">
        <g id="Desktop-HD" transform="translate(-45.000000, -21.000000)">
            <g id="Navbar">
                <g id="Group-2" transform="translate(45.000000, 20.000000)">
                    <g id="Page-1">
                        <path d="M29.2231065,14.4759577 L32.3298468,16.3313184 C34.3786733,17.5252488 35.9664256,19.3117289 36.9582199,21.4302488 L39.0070463,25.9348632 L45.3536477,20.6363557 C46.545564,19.6428856 48.2637924,19.7744652 49.3208246,20.9021642 C50.3787385,22.0952114 50.2473808,23.9479229 49.0563462,25.0067413 L41.1942832,31.6263433 C39.5412928,33.0172015 37.0269843,32.751393 35.704592,31.0302612 L31.606939,25.6001741 L25.9867718,34.0795522 L32.3986112,38.9153234 C34.5126757,40.5057587 35.2435179,43.286592 34.2517236,45.6700373 L29.3579905,57.0600622 C28.5654368,58.8474254 26.4478459,59.5786194 24.7296175,58.7158458 C23.2071032,57.9228358 22.545907,56.0012438 23.2071032,54.4108085 L27.5701162,44.7419154 L17.7218199,37.7222761 C14.7464373,35.6037562 13.9538835,31.560995 15.8034695,28.4498881 L21.4888748,19.1121517 L13.354399,20.701704 L7.2079196,26.1971393 C5.75416967,27.0599129 3.90193887,26.5936443 2.97538266,25.1383209 C1.98358844,23.6132338 2.51430855,21.5609453 4.09765293,20.701704 L10.9749745,15.0066915 C11.3708105,14.8071144 11.7675282,14.6101866 12.1668907,14.5448383 L20.5623186,13.2202114 C23.5377013,12.4890174 26.6479679,12.8855224 29.2231065,14.4759577 L29.2231065,14.4759577 Z" id="Fill-1" fill="#16A085"></path>
                        <path d="M15.5381095,38.1841294 L21.8847109,42.2895896 L20.1664825,49.4434577 C19.7054084,51.1645896 18.5134921,52.6243284 16.9257398,53.4173383 L4.62837303,59.3781592 C3.1058587,60.1058209 1.25715428,59.4435075 0.461074114,57.9228358 C-0.265360054,56.3977488 0.330598074,54.5459204 1.84958602,53.8173756 L13.4205186,47.8565547 L15.5381095,38.1841294 Z" id="Fill-2" fill="#16A085"></path>
                        <path d="M39.3106493,4.10583124 C37.9612913,2.52998879 35.5609397,1.80124344 33.8567059,3.55610031 C33.7972306,3.61577179 33.6938898,3.61577179 33.6344145,3.55610031 C31.7527428,1.78657337 29.3962567,2.51531873 28.1804711,4.09116117 C26.0911298,6.82712816 27.262062,8.81967973 29.6780234,11.2572893 L33.2939629,14.6770003 C33.5456956,14.9295633 33.9315934,14.9295633 34.1831284,14.6770003 L37.8138874,11.2572893 C40.2436802,8.81967973 41.5481848,6.7077852 39.3106493,4.10583124 L39.3106493,4.10583124 Z M38.8065912,7.3171876 C38.5989217,8.04593296 38.0948637,7.86711677 38.2879114,7.34672598 C38.5394464,6.6776521 38.3620085,6.11225989 37.8138874,5.47351736 C37.3987459,4.9824667 36.8059689,4.68510053 36.2726673,4.68510053 C35.8727404,4.68510053 35.5168766,4.84845368 35.2058663,5.16068816 C34.8353807,5.53239586 34.6130893,5.0714783 34.8648219,4.81832057 C35.2945852,4.37227132 35.7832311,4.19424811 36.2726673,4.19424811 C36.9841972,4.19424811 37.6951344,4.58062588 38.184373,5.14581985 C38.8504567,5.92035959 38.998651,6.6187736 38.8065912,7.3171876 L38.8065912,7.3171876 Z" fill="#16A085" transform="translate(33.780175, 8.696041) rotate(30.000000) translate(-33.780175, -8.696041) "></path>
                        <text id="9" transform="translate(26.309688, 22.499092) rotate(33.000000) translate(-26.309688, -22.499092) " font-family="NewAthleticM54, New Athletic M54" font-size="14.1666667" font-weight="normal" fill="#ECF0F1">
                            <tspan x="22.5720172" y="28.9990923">9</tspan>
                        </text>
                    </g>
                    <g id="Group" transform="translate(54.403875, 12.500000)" font-size="29.5833333" font-family="NewAthleticM54, New Athletic M54" font-weight="normal">
                        <text id="False" fill="#C0392B">
                            <tspan x="0" y="29">False </tspan>
                        </text>
                        <g id="Nine" transform="translate(70.643994, 0.000000)" fill="#16A085">
                            <text id="NI">
                                <tspan x="0" y="29">NI </tspan>
                            </text>
                            <text id="N" transform="translate(29.614323, 20.575001) scale(1, -1) translate(-29.614323, -20.575001) ">
                                <tspan x="22" y="34.7000008">N </tspan>
                            </text>
                            <text id="E" transform="translate(44.839900, 20.575001) scale(1, -1) translate(-44.839900, -20.575001) ">
                                <tspan x="37.2255777" y="34.7000008">E </tspan>
                            </text>
                        </g>
                    </g>
                </g>
            </g>
        </g>
    </g>
</svg>