<svg width="28px" height="28px" viewBox="0 0 28 28" version="1.1" xmlns="http://www.w3.org/2000/svg">
    <!-- Generator: Sketch 44.1 (41455) - http://www.bohemiancoding.com/sketch -->
    <title>Page 1</title>
    <desc>Created with Sketch.</desc>
    <defs></defs>
    <g id="Home" stroke="none" stroke-width="1" fill="none" fill-rule="evenodd">
        <g id="Desktop-HD" transform="translate(-266.000000, -36.000000)" fill="#16A085">
            <g id="Navbar">
                <path d="M293.722646,62.4146397 L284.155281,52.8472745 C285.647479,51.0756785 286.534833,48.7421748 286.534833,46.2674163 C286.534833,40.6209596 281.913873,36 276.267416,36 C270.62096,36 266,40.6209596 266,46.2674163 C266,51.913873 270.62096,56.5348326 276.267416,56.5348326 C278.742175,56.5348326 281.075678,55.6474789 282.847274,54.1552811 L292.41464,63.7226463 C292.789245,64.0966291 293.348041,64.0966291 293.722646,63.7226463 C294.09414,63.3480411 294.09414,62.7892448 293.722646,62.4146397 L293.722646,62.4146397 Z M276.267416,54.6680296 C271.646457,54.6680296 267.866803,50.8883759 267.866803,46.2674163 C267.866803,41.6464567 271.646457,37.866803 276.267416,37.866803 C280.888376,37.866803 284.66803,41.6464567 284.66803,46.2674163 C284.66803,50.8883759 280.888376,54.6680296 276.267416,54.6680296 L276.267416,54.6680296 Z M279.393067,41.0416125 C279.300971,41.2282928 279.159716,41.3210107 278.973036,41.3210107 C278.880318,41.3210107 278.831781,41.3210107 278.785733,41.2749629 C278.552383,41.1337081 278.319033,41.0416125 278.039635,40.9488947 C277.806284,40.856799 277.665029,40.6234487 277.759614,40.3415614 C277.852332,40.1082111 278.085682,39.9669563 278.36757,40.061541 C278.646968,40.1542589 278.926366,40.2948914 279.208876,40.4361461 C279.442226,40.5257527 279.534321,40.8082622 279.393067,41.0416125 L279.393067,41.0416125 Z M276.734117,40.2003067 C276.734117,40.4797048 276.546814,40.6670074 276.267416,40.6670074 C273.187814,40.6670074 270.667007,43.1878137 270.667007,46.2674163 C270.667007,46.5468145 270.479705,46.734117 270.200307,46.734117 C269.920908,46.734117 269.733606,46.5468145 269.733606,46.2674163 C269.733606,42.6750651 272.675065,39.7336059 276.267416,39.7336059 C276.546814,39.7336059 276.734117,39.9209085 276.734117,40.2003067 L276.734117,40.2003067 Z" id="Page-1"></path>
            </g>
        </g>
    </g>
</svg>